<svg height="512pt" viewBox="0 -5 512 512" width="512pt" xmlns="http://www.w3.org/2000/svg" fill="white"><path d="m441.964844 214.308594c-2.503906.910156-4.898438 2.105468-7.128906 3.566406-55.316407 36.84375-68.757813 80.457031-40.230469 129.554688h20.570312c32.648438-37.765626 50.738281-85.945313 51.019531-135.863282-8.179687-.792968-16.433593.140625-24.230468 2.742188zm0 0"/><path d="m53.210938 192.824219c2.453124 1.726562 5.019531 3.285156 7.679687 4.660156 2.652344 1.464844 5.304687 2.925781 7.863281 4.574219 9.859375 7.542968 16.671875 18.382812 19.199219 30.535156l1.097656 3.382812c1.921875 5.761719 3.566407 11.613282 5.210938 17.464844 3.085937 15.660156 9.507812 30.472656 18.835937 43.425782 3.753906 3.984374 8.140625 7.324218 12.980469 9.875 2.746094 1.644531 5.488281 3.382812 8.140625 5.210937 5.867188 3.742187 9.882812 9.785156 11.0625 16.640625.726562 6.699219-1.101562 13.425781-5.121094 18.835938h40.6875c31.015625.074218 59.632813 16.703124 75.0625 43.609374 10.261719-18.144531 26.816406-31.902343 46.535156-38.671874 8.3125-2.980469 17.046876-4.617188 25.875-4.847657-.550781-1.371093-1.1875-2.652343-1.738281-4.023437-3.175781-8.824219-7.777343-17.070313-13.621093-24.410156-10.324219-8.476563-22.464844-14.453126-35.476563-17.464844-7.355469-3.488282-15.710937-4.265625-23.585937-2.191406-3.621094 1.90625-6.871094 4.445312-9.601563 7.496093-2.875 2.851563-5.960937 5.480469-9.234375 7.863281-10.195312 6.5625-23.105469 7.222657-33.917969 1.738282l-6.128906-2.652344c-6.398437-2.652344-12.339844-5.210938-18.648437-7.316406-2.5625-.820313-5.121094-1.554688-7.679688-2.285156-4.664062-1.371094-9.234375-2.742188-13.714844-4.386719-19.566406-7.222657-31.453125-18.742188-35.382812-34.195313-2.367188-8.335937-1.585938-17.253906 2.191406-25.050781 7.5-14.71875 24.320312-15.910156 36.480469-16.730469 2.195312-.09375 4.296875-.277344 6.21875-.457031 3.382812-.367187 6.855469-.550781 10.238281-.640625 5.527344.050781 11.035156-.65625 16.367188-2.105469 7.03125-2.972656 13.472656-7.183593 19.015624-12.433593 10.203126-9.097657 21.582032-16.785157 33.828126-22.855469 10.332031-4.847657 21.03125-8.960938 31.363281-12.984375l10.695312-4.203125c8.136719-3.203125 12.800781-5.214844 14.445313-10.332031.8125-2.535157.40625-5.304688-1.097656-7.5-3.21875-3.054688-7.308594-5.035157-11.703126-5.667969-20.164062-4.363281-40.714843-6.691407-61.347656-6.949219-10.148437-.363281-20.664062-.546875-34.195312-.273438-10.421875.875-20.75-2.523437-28.617188-9.417968-9.667968-10.414063-11.234375-25.988282-3.839844-38.125 6.132813-9.308594 15.3125-16.191406 25.96875-19.472656l1.09375-.457032c6.675782-2.835937 13.535157-6.21875 20.023438-9.601562 3.839844-1.828125 7.589844-3.746094 11.339844-5.578125 4.71875-1.714844 8.652344-5.097657 11.0625-9.507813 1.214844-3.289062.511718-6.984375-1.828125-9.597656-2.628907-2.347656-5.753907-4.066406-9.144531-5.03125-8.035157-2.617188-16.214844-4.753906-24.503907-6.398438-7.871093-1.59375-15.65625-3.605468-23.3125-6.035156-67.472656 30.25-114.171875 93.632813-123.0625 167.039063 1.039063 3.121093 3.144531 5.773437 5.941407 7.5zm0 0"/><path d="m240.640625 23.222656c7.152344 7.816406 9.277344 19 5.484375 28.890625-4.039062 8.710938-11.226562 15.570313-20.113281 19.199219l-10.972657 5.488281c-6.855468 3.472657-13.988281 7.039063-21.210937 10.054688l-1.097656.457031c-8.867188 3.75-13.988281 6.128906-17.277344 11.886719-3.105469 4.914062-2.777344 11.253906.820313 15.816406 4.398437 3.453125 10.007812 4.972656 15.542968 4.207031 13.898438-.183594 24.777344-.089844 35.199219.273438 21.863281.265625 43.644531 2.746094 65.007813 7.40625 8.574218 1.558594 16.351562 6.011718 22.035156 12.617187 4.910156 6.929688 6.300781 15.761719 3.746094 23.863281-4.285157 10.96875-13.683594 19.132813-25.140626 21.851563l-10.789062 4.207031c-10.058594 3.929688-20.390625 8.042969-30.261719 12.523438-10.773437 5.402344-20.765625 12.230468-29.714843 20.296875-7.277344 6.761719-15.738282 12.125-24.960938 15.816406-6.976562 2.054687-14.214844 3.070313-21.484375 3.019531-3.019531.089844-6.035156.183594-8.960937.546875-2.195313.183594-4.480469.367188-6.949219.550781-10.605469.730469-18.925781 1.644532-21.484375 6.765626-1.699219 3.863281-1.957032 8.210937-.734375 12.25 2.378906 9.507812 10.058593 16.367187 23.957031 21.578124 4.113281 1.460938 8.320312 2.742188 12.523438 3.929688 2.652343.824219 5.394531 1.554688 8.136718 2.46875 7.132813 2.285156 13.808594 5.121094 20.207032 7.863281l6.035156 2.5625c9.234375 3.839844 13.894531 1.917969 16.546875.089844 2.441406-1.828125 4.734375-3.84375 6.859375-6.035156 4.261718-4.53125 9.308594-8.246094 14.902344-10.972657 11.898437-3.988281 24.847656-3.464843 36.386718 1.464844 15.890625 3.777344 30.632813 11.335938 42.972656 22.035156 7.652344 8.84375 13.578126 19.046876 17.460938 30.078126 1.097656 2.5625 2.195312 5.03125 3.292969 7.316406.507812 1.214844.753906 2.523437.730469 3.839844h26.515624c-26.515624-54.035157-8.867187-104.960938 50.835938-144.734376 3.386719-2.289062 7.039062-4.164062 10.878906-5.574218 9.628906-3.308594 19.828125-4.648438 29.988282-3.933594-4.496094-54.519531-30.039063-105.152344-71.222657-141.164062-9.78125-8.664063-20.410156-16.324219-31.726562-22.859376-32.292969-19.070312-69.101563-29.1406245-106.605469-29.164062-18.53125-.0117188-36.976562 2.449219-54.855469 7.3125 7.835938 1.558594 15.566407 3.636719 23.128907 6.21875 6.152343 1.875 11.765624 5.199219 16.367187 9.691406zm161.015625 76.507813c4.148438-2.871094 9.84375-1.835938 12.714844 2.3125 13.363281 19.308593 22.976562 40.953125 28.34375 63.808593 1.144531 4.902344-1.886719 9.804688-6.785156 10.972657-.695313.160156-1.40625.242187-2.121094.246093-4.230469-.003906-7.90625-2.914062-8.886719-7.03125-4.847656-20.636718-13.53125-40.175781-25.597656-57.601562-2.863281-4.152344-1.820313-9.839844 2.332031-12.707031zm-47.363281-43.730469c1.398437-1.984375 3.523437-3.335938 5.914062-3.753906 2.390625-.414063 4.847657.136718 6.832031 1.53125 9.046876 6.394531 17.527344 13.554687 25.34375 21.40625 2.3125 2.3125 3.210938 5.683594 2.359376 8.839844-.847657 3.15625-3.316407 5.621093-6.476563 6.464843s-6.527344-.0625-8.835937-2.378906c-7.046876-7.101563-14.695313-13.582031-22.859376-19.363281-1.992187-1.386719-3.355468-3.511719-3.78125-5.902344-.425781-2.390625.113282-4.851562 1.503907-6.84375zm-89.148438 1.78125c1.78125-3.683594 4.160157-7.050781 7.039063-9.964844v-.089844c7.40625-8.296874 19.226562-11.042968 29.53125-6.859374 4.582031 2.5 8.425781 6.15625 11.152344 10.605468l7.5 10.605469c4.589843 5.445313 7.566406 12.0625 8.59375 19.109375.785156 9.707031-4.234376 18.960938-12.800782 23.589844-3.421875 1.863281-7.257812 2.839844-11.15625 2.835937-14.167968 0-27.335937-12.253906-33.003906-17.464843-3.875-3.253907-6.863281-7.4375-8.6875-12.160157-2.148438-6.703125-1.488281-13.996093 1.832031-20.207031zm0 0"/><path d="m284.433594 76.707031c14.445312 13.441407 20.664062 13.257813 23.132812 11.980469 2.082032-1.238281 3.3125-3.523438 3.199219-5.945312-.957031-3.703126-2.738281-7.140626-5.210937-10.054688l-7.589844-10.609375c-1.121094-1.839844-2.578125-3.453125-4.296875-4.753906-1.917969-.914063-5.667969.550781-8.410157 3.292969-1.515624 1.472656-2.753906 3.207031-3.65625 5.121093-1.113281 1.867188-1.472656 4.089844-1.007812 6.214844.914062 1.847656 2.226562 3.472656 3.839844 4.753906zm0 0"/><path d="m171.613281 417.828125-.183593.183594c-4.386719 4.277343-6.859376 10.148437-6.859376 16.273437 0 6.128906 2.472657 11.996094 6.859376 16.273438l.183593.183594c4.246094 4.097656 9.914063 6.390624 15.816407 6.402343h137.140624c5.902344-.011719 11.570313-2.304687 15.816407-6.402343l.183593-.183594c4.386719-4.277344 6.859376-10.144532 6.859376-16.273438 0-6.125-2.472657-11.996094-6.859376-16.273437l-.183593-.183594c-4.246094-4.09375-9.914063-6.386719-15.816407-6.398437h-137.140624c-5.902344.011718-11.570313 2.304687-15.816407 6.398437zm0 0"/><path d="m115.199219 347.429688c.640625-.550782 1.1875-1.097657 1.738281-1.648438 2.558594-2.21875 4.941406-4.632812 7.132812-7.222656 1.878907-1.984375 2.980469-4.582032 3.105469-7.3125-.578125-1.816406-1.816406-3.351563-3.472656-4.296875-2.378906-1.644531-4.753906-3.109375-7.132813-4.570313-6.558593-3.507812-12.4375-8.148437-17.371093-13.714844-11.207031-14.886718-18.925781-32.105468-22.582031-50.378906-1.554688-5.578125-3.109376-11.0625-4.847657-16.546875l-1.1875-3.476562c-1.398437-8.171875-5.640625-15.585938-11.976562-20.9375-2.101563-1.371094-4.296875-2.648438-6.582031-3.839844-2.011719-1.1875-4.207032-2.375-6.308594-3.746094v.546875c-.003906 50.371094 18.140625 99.058594 51.109375 137.144532zm0 0"/><path d="m443.429688 365.714844h-112.277344c-7.71875-.011719-15.386719 1.285156-22.671875 3.839844-9.699219 3.433593-18.507813 8.996093-25.785157 16.273437-2.234374 2.269531-4.28125 4.714844-6.125 7.316406h48c9.300782.023438 18.3125 3.25 25.507813 9.140625h102.492187c17.675782 0 32 14.328125 32 32s-14.324218 32-32 32h-102.492187c-7.195313 5.890625-16.207031 9.121094-25.507813 9.144532h-48c12.894532 17.1875 33.097657 27.339843 54.582032 27.425781h112.277344c37.847656-.054688 68.515624-30.722657 68.570312-68.570313 0-37.871094-30.699219-68.570312-68.570312-68.570312zm0 0"/><path d="m161.921875 466.285156h-93.351563c-17.671874 0-32-14.328125-32-32s14.328126-32 32-32h93.351563c7.195313-5.890625 16.207031-9.117187 25.507813-9.140625h48c-12.894532-17.191406-33.097657-27.34375-54.582032-27.429687h-112.277344c-37.847656.054687-68.5156245 30.722656-68.570312 68.570312 0 37.871094 30.699219 68.570313 68.570312 68.570313h112.277344c18.191406.058593 35.648438-7.1875 48.457032-20.113281 2.234374-2.269532 4.28125-4.714844 6.125-7.3125h-48c-9.300782-.023438-18.3125-3.253907-25.507813-9.144532zm0 0"/></svg>